<svg xmlns="http://www.w3.org/2000/svg" version="1.1" xmlns:xlink="http://www.w3.org/1999/xlink" xmlns:svgjs="http://svgjs.com/svgjs" width="512" height="512" x="0" y="0" viewBox="0 0 88 88" style="enable-background:new 0 0 512 512" xml:space="preserve" class=""><g><link type="text/css" rel="stylesheet" id="dark-mode-custom-link"></link><link type="text/css" rel="stylesheet" id="dark-mode-general-link"></link><style lang="en" type="text/css" id="dark-mode-custom-style"></style><style lang="en" type="text/css" id="dark-mode-native-style"></style><style lang="en" type="text/css" id="dark-mode-native-sheet"></style><g xmlns="http://www.w3.org/2000/svg" id="Box"><path d="m81 23v42l-37 20-37-20v-42l2.1-1.13 34.9 18.86 34.9-18.86z" fill="#ffb655" data-original="#ffb655" class=""></path><path d="m44 43v42l-37-20v-42z" fill="#fccc97" data-original="#fccc97"></path><g fill="#ffb655"><path d="m24.0732 67.272a.998.998 0 0 1 -.4746-.12l-13.0742-7.067a1 1 0 0 1 .9512-1.76l13.0744 7.0671a1 1 0 0 1 -.4766 1.88z" fill="#ffb655" data-original="#ffb655" class=""></path><path d="m15.7432 66.18a.9974.9974 0 0 1 -.4746-.12l-4.7442-2.5645a1 1 0 1 1 .9512-1.76l4.7444 2.5645a1 1 0 0 1 -.4765 1.88z" fill="#ffb655" data-original="#ffb655" class=""></path><path d="m19.67 29.8486v17.1814a1 1 0 0 0 1.3194.9477l4.1235-1.39 4.4 6.2383a1 1 0 0 0 1.8171-.576v-16.0986z" fill="#ffb655" data-original="#ffb655" class=""></path></g><path d="m7 23 37 20 37-20-37-20z" fill="#fc9f30" data-original="#fc9f30" class=""></path><path d="m19.618 29.82 11.764 6.359 37-19.999-11.764-6.36z" fill="#db811f" data-original="#db811f"></path></g></g></svg>